<svg width="27" height="23" viewBox="0 0 27 23" fill="none" xmlns="http://www.w3.org/2000/svg">
<path fill-rule="evenodd" clip-rule="evenodd" d="M26.3517 1.02734V22H19.6174V10.8281C19.6174 10.0996 19.6086 9.52662 19.5918 9.10424C19.5834 8.89285 19.5732 8.72649 19.562 8.60126C19.5564 8.53889 19.551 8.4911 19.5461 8.45593C19.5452 8.44955 19.5444 8.44388 19.5436 8.4389C19.5345 8.43347 19.5221 8.4267 19.5055 8.41903L19.492 8.41279L19.4788 8.40615C19.4801 8.40685 19.4793 8.40657 19.4758 8.40547C19.4547 8.39875 19.3369 8.36127 19.0538 8.32982C18.753 8.2964 18.3441 8.27734 17.8166 8.27734H16.3478V4.25466L17.1376 4.08484C19.2464 3.63143 20.7578 2.72291 21.7725 1.41452L22.0727 1.02734H26.3517ZM25.3517 2.02734H22.5627C21.3752 3.55859 19.6369 4.57031 17.3478 5.0625V7.27734H17.8166C18.9103 7.27734 19.6135 7.35547 19.926 7.51172C20.2463 7.66016 20.4416 7.88281 20.5119 8.17969C20.5822 8.47656 20.6174 9.35938 20.6174 10.8281V21H25.3517V2.02734Z" fill="black"/>
<path fill-rule="evenodd" clip-rule="evenodd" d="M4.03333 21.9192L4.03334 21.9192C3.12952 21.5991 2.3695 21.0884 1.79442 20.3721C1.27913 19.7303 0.897943 19.0374 0.669221 18.2941L0.668173 18.2907L0.66818 18.2907C0.435311 17.5242 0.34375 16.4228 0.34375 15.0703V8.44922C0.34375 6.67742 0.491312 5.23847 0.842967 4.21127L0.845572 4.20366L0.845602 4.20367C1.23837 3.0858 2.00789 2.21445 3.07534 1.58709L3.07862 1.58516L3.07863 1.58517C4.16079 0.954693 5.42909 0.664062 6.83984 0.664062C7.99641 0.664062 9.06738 0.868577 10.0338 1.30048C10.9539 1.70406 11.7213 2.23343 12.2587 2.92594C12.7572 3.56817 13.0936 4.29446 13.2657 5.09348C13.4394 5.86538 13.5117 7.005 13.5117 8.44922V14.7773C13.5117 16.2257 13.4353 17.3721 13.2501 18.1496C13.0526 18.9791 12.6462 19.7339 12.0617 20.4112C11.4594 21.1091 10.7224 21.6199 9.86178 21.9293C9.04183 22.2241 8.14767 22.3633 7.19141 22.3633C5.99131 22.3633 4.93106 22.2278 4.04211 21.9222L4.03333 21.9192ZM12.2891 5.30859C12.1484 4.65234 11.875 4.0625 11.4688 3.53906C11.0625 3.01562 10.4492 2.57422 9.62891 2.21484C8.80859 1.84766 7.87891 1.66406 6.83984 1.66406C5.56641 1.66406 4.48047 1.92578 3.58203 2.44922C2.69141 2.97266 2.09375 3.66797 1.78906 4.53516C1.49219 5.40234 1.34375 6.70703 1.34375 8.44922V15.0703C1.34375 16.4062 1.4375 17.3828 1.625 18C1.8125 18.6094 2.12891 19.1914 2.57422 19.7461C3.01953 20.3008 3.61719 20.7109 4.36719 20.9766C5.11719 21.2344 6.05859 21.3633 7.19141 21.3633C8.05078 21.3633 8.82812 21.2383 9.52344 20.9883C10.2188 20.7383 10.8125 20.3281 11.3047 19.7578C11.7969 19.1875 12.1211 18.5742 12.2773 17.918C12.4336 17.2617 12.5117 16.2148 12.5117 14.7773V8.44922C12.5117 7.01172 12.4375 5.96484 12.2891 5.30859ZM6.23047 18.1055C6.33984 18.332 6.57031 18.4453 6.92188 18.4453C7.27344 18.4453 7.50391 18.3125 7.61328 18.0469C7.72266 17.7812 7.77734 17.1836 7.77734 16.2539V6.85547C7.77734 5.84766 7.72656 5.21875 7.625 4.96875C7.53125 4.71094 7.30469 4.58203 6.94531 4.58203C6.59375 4.58203 6.35938 4.71875 6.24219 4.99219C6.13281 5.25781 6.07812 5.87891 6.07812 6.85547V16.1133C6.07812 17.2148 6.12891 17.8789 6.23047 18.1055Z" fill="black"/>
</svg>
