<svg width="30" height="23" viewBox="0 0 30 23" fill="none" xmlns="http://www.w3.org/2000/svg">
<path fill-rule="evenodd" clip-rule="evenodd" d="M29.2579 16.7656V22H16.84V18.0115L16.9868 17.7713C19.4255 13.783 21.06 11.031 21.9141 9.48438H16.84V7.79297C16.84 6.70679 16.8951 5.80302 17.0198 5.10849C17.1598 4.32026 17.4997 3.5773 18.0025 2.88248C18.5386 2.14169 19.2385 1.5812 20.0832 1.20685C20.9285 0.832236 21.8979 0.664062 22.9611 0.664062C24.997 0.664062 26.7102 1.17131 27.922 2.35161C29.0991 3.48268 29.6798 4.92842 29.6798 6.60938C29.6798 7.86455 29.3638 9.15274 28.7719 10.464C28.2699 11.5903 26.9751 13.7081 24.9415 16.7656H29.2579ZM23.7393 16.7656C23.5231 17.0886 23.2989 17.4219 23.0665 17.7656H28.2579V21H17.84V18.293C20.5303 13.8931 22.2676 10.9569 23.0519 9.48438C23.0621 9.46512 23.0722 9.44612 23.0822 9.42737C23.1839 9.2352 23.2685 9.06931 23.3361 8.92969C23.922 7.72656 24.215 6.78906 24.215 6.11719C24.215 5.60156 24.1251 5.21875 23.9454 4.96875C23.7736 4.71094 23.5079 4.58203 23.1486 4.58203C22.7892 4.58203 22.5197 4.72266 22.34 5.00391C22.1681 5.28516 22.0822 5.84375 22.0822 6.67969V8.48438H17.84V7.79297C17.84 7.68789 17.8405 7.58502 17.8416 7.48438C17.8513 6.56734 17.9055 5.83426 18.004 5.28516C18.1134 4.66797 18.3829 4.0625 18.8126 3.46875C19.2423 2.875 19.8009 2.42578 20.4884 2.12109C21.1759 1.81641 22.0001 1.66406 22.9611 1.66406C24.8439 1.66406 26.2657 2.13281 27.2267 3.07031C28.1954 4 28.6798 5.17969 28.6798 6.60938C28.6798 7.69531 28.4064 8.84375 27.8595 10.0547C27.3676 11.1597 25.9942 13.3967 23.7393 16.7656ZM23.1639 5.63278C23.1548 5.67179 23.1448 5.72218 23.135 5.78585C23.1025 5.99718 23.0822 6.29096 23.0822 6.67969V6.8879C23.1753 6.56232 23.215 6.30763 23.215 6.11719C23.215 5.91396 23.1969 5.76936 23.174 5.67185C23.1706 5.65734 23.1672 5.64435 23.1639 5.63278Z" fill="black"/>
<path fill-rule="evenodd" clip-rule="evenodd" d="M4.03333 21.9192L4.03334 21.9192C3.12952 21.5991 2.3695 21.0884 1.79442 20.3721C1.27913 19.7303 0.897943 19.0374 0.669221 18.2941L0.668173 18.2907L0.66818 18.2907C0.435311 17.5242 0.34375 16.4228 0.34375 15.0703V8.44922C0.34375 6.67742 0.491312 5.23847 0.842967 4.21127L0.845572 4.20366L0.845602 4.20367C1.23837 3.0858 2.00789 2.21445 3.07534 1.58709L3.07862 1.58516L3.07863 1.58517C4.16079 0.954693 5.42909 0.664062 6.83984 0.664062C7.99641 0.664062 9.06738 0.868577 10.0338 1.30048C10.9539 1.70406 11.7213 2.23343 12.2587 2.92594C12.7572 3.56817 13.0936 4.29446 13.2657 5.09348C13.4394 5.86538 13.5117 7.005 13.5117 8.44922V14.7773C13.5117 16.2257 13.4353 17.3721 13.2501 18.1496C13.0526 18.9791 12.6462 19.7339 12.0617 20.4112C11.4594 21.1091 10.7224 21.6199 9.86178 21.9293C9.04183 22.2241 8.14767 22.3633 7.19141 22.3633C5.99131 22.3633 4.93106 22.2278 4.04211 21.9222L4.03333 21.9192ZM12.2891 5.30859C12.1484 4.65234 11.875 4.0625 11.4688 3.53906C11.0625 3.01562 10.4492 2.57422 9.62891 2.21484C8.80859 1.84766 7.87891 1.66406 6.83984 1.66406C5.56641 1.66406 4.48047 1.92578 3.58203 2.44922C2.69141 2.97266 2.09375 3.66797 1.78906 4.53516C1.49219 5.40234 1.34375 6.70703 1.34375 8.44922V15.0703C1.34375 16.4062 1.4375 17.3828 1.625 18C1.8125 18.6094 2.12891 19.1914 2.57422 19.7461C3.01953 20.3008 3.61719 20.7109 4.36719 20.9766C5.11719 21.2344 6.05859 21.3633 7.19141 21.3633C8.05078 21.3633 8.82812 21.2383 9.52344 20.9883C10.2188 20.7383 10.8125 20.3281 11.3047 19.7578C11.7969 19.1875 12.1211 18.5742 12.2773 17.918C12.4336 17.2617 12.5117 16.2148 12.5117 14.7773V8.44922C12.5117 7.01172 12.4375 5.96484 12.2891 5.30859ZM6.23047 18.1055C6.33984 18.332 6.57031 18.4453 6.92188 18.4453C7.27344 18.4453 7.50391 18.3125 7.61328 18.0469C7.72266 17.7812 7.77734 17.1836 7.77734 16.2539V6.85547C7.77734 5.84766 7.72656 5.21875 7.625 4.96875C7.53125 4.71094 7.30469 4.58203 6.94531 4.58203C6.59375 4.58203 6.35938 4.71875 6.24219 4.99219C6.13281 5.25781 6.07812 5.87891 6.07812 6.85547V16.1133C6.07812 17.2148 6.12891 17.8789 6.23047 18.1055Z" fill="black"/>
</svg>
