<svg width="40" height="40" viewBox="0 0 40 40" fill="none" xmlns="http://www.w3.org/2000/svg">
<path d="M19.5001 8C12.5974 8 7 13.5014 7 20.2881C7 25.7173 10.5817 30.3234 15.5483 31.9482C16.173 32.062 16.4024 31.6817 16.4024 31.3571C16.4024 31.0641 16.3908 30.0961 16.3854 29.0693C12.9079 29.8127 12.1741 27.6195 12.1741 27.6195C11.6055 26.1992 10.7862 25.8215 10.7862 25.8215C9.65204 25.0588 10.8717 25.0745 10.8717 25.0745C12.1269 25.1612 12.7878 26.3408 12.7878 26.3408C13.9027 28.2194 15.7121 27.6763 16.4254 27.3623C16.5376 26.5681 16.8615 26.026 17.219 25.7191C14.4426 25.4084 11.5239 24.3548 11.5239 19.6463C11.5239 18.3047 12.0122 17.2085 12.8118 16.348C12.6821 16.0385 12.2542 14.7887 12.9329 13.0961C12.9329 13.0961 13.9826 12.7658 16.3714 14.3557C17.3685 14.0834 18.4378 13.9469 19.5001 13.9422C20.5624 13.9469 21.6326 14.0834 22.6315 14.3557C25.0174 12.7658 26.0656 13.0961 26.0656 13.0961C26.746 14.7887 26.3179 16.0385 26.1882 16.348C26.9897 17.2085 27.4746 18.3047 27.4746 19.6463C27.4746 24.366 24.5504 25.4052 21.7669 25.7094C22.2153 26.0907 22.6148 26.8385 22.6148 27.985C22.6148 29.6291 22.6003 30.9524 22.6003 31.3571C22.6003 31.6841 22.8253 32.0673 23.4589 31.9466C28.4229 30.32 32 25.7155 32 20.2881C32 13.5014 26.4034 8 19.5001 8ZM11.6817 25.5047C11.6542 25.5657 11.5565 25.584 11.4675 25.5421C11.3768 25.502 11.3259 25.4188 11.3553 25.3575C11.3822 25.2947 11.4801 25.2772 11.5705 25.3193C11.6614 25.3594 11.7132 25.4434 11.6817 25.5047ZM12.2966 26.044C12.2369 26.0983 12.1204 26.0731 12.0413 25.9872C11.9596 25.9016 11.9443 25.787 12.0047 25.7318C12.0662 25.6775 12.1792 25.7029 12.2612 25.7886C12.3429 25.8753 12.3589 25.9891 12.2966 26.044ZM12.7184 26.734C12.6418 26.7863 12.5166 26.7373 12.4391 26.628C12.3626 26.5188 12.3626 26.3877 12.4408 26.3352C12.5184 26.2827 12.6418 26.3299 12.7202 26.4384C12.7966 26.5495 12.7966 26.6805 12.7184 26.734ZM13.4318 27.5332C13.3633 27.6075 13.2173 27.5876 13.1105 27.4862C13.0012 27.3871 12.9708 27.2465 13.0395 27.1722C13.1089 27.0978 13.2556 27.1187 13.3633 27.2193C13.4717 27.3181 13.5048 27.4598 13.4318 27.5332ZM14.3538 27.803C14.3235 27.8993 14.183 27.943 14.0414 27.9021C13.9 27.86 13.8075 27.7473 13.8361 27.65C13.8655 27.5531 14.0066 27.5076 14.1492 27.5513C14.2904 27.5932 14.3832 27.7052 14.3538 27.803ZM15.403 27.9175C15.4065 28.0188 15.2865 28.1028 15.1379 28.1047C14.9884 28.1079 14.8675 28.0259 14.8659 27.9262C14.8659 27.8239 14.9832 27.7406 15.1327 27.7382C15.2813 27.7353 15.403 27.8167 15.403 27.9175ZM16.4338 27.8786C16.4516 27.9775 16.3483 28.0791 16.2007 28.1061C16.0556 28.1322 15.9213 28.0711 15.9029 27.973C15.8848 27.8717 15.99 27.7702 16.1349 27.7439C16.2827 27.7187 16.415 27.7781 16.4338 27.8786Z" fill="#161614"/>
</svg>
