<svg width="257" height="251" viewBox="0 0 257 251" fill="none" xmlns="http://www.w3.org/2000/svg">
<g clip-path="url(#clip0_709_337)">
<path d="M128.984 0.288696C58.3007 0.288696 0.983398 57.5954 0.983398 128.29C0.983398 184.844 37.6596 232.824 88.5183 249.75C94.9154 250.934 97.264 246.973 97.264 243.592C97.264 240.54 97.1453 230.457 97.0902 219.761C61.4802 227.504 53.966 204.658 53.966 204.658C48.1434 189.863 39.7538 185.929 39.7538 185.929C28.1403 177.985 40.6292 178.148 40.6292 178.148C53.4827 179.051 60.2508 191.339 60.2508 191.339C71.6672 210.907 90.195 205.25 97.4993 201.979C98.6481 193.706 101.965 188.059 105.626 184.863C77.1952 181.626 47.3082 170.651 47.3082 121.604C47.3082 107.63 52.3085 96.2111 60.4966 87.2471C59.1676 84.0231 54.7863 71.0043 61.7366 53.3731C61.7366 53.3731 72.4853 49.9329 96.946 66.4937C107.156 63.6576 118.106 62.2353 128.984 62.1865C139.862 62.2353 150.821 63.6576 161.05 66.4937C185.481 49.9329 196.215 53.3731 196.215 53.3731C203.183 71.0043 198.799 84.0231 197.47 87.2471C205.677 96.2111 210.644 107.63 210.644 121.604C210.644 170.767 180.7 181.592 152.197 184.761C156.788 188.734 160.879 196.523 160.879 208.465C160.879 225.592 160.73 239.376 160.73 243.592C160.73 246.998 163.034 250.99 169.523 249.733C220.354 232.788 256.983 184.825 256.983 128.29C256.983 57.5954 199.675 0.288696 128.984 0.288696ZM48.924 182.629C48.642 183.265 47.6416 183.456 46.7301 183.019C45.8017 182.601 45.2803 181.734 45.5813 181.096C45.8568 180.441 46.8594 180.259 47.7857 180.698C48.7162 181.115 49.2461 181.991 48.924 182.629ZM55.2202 188.247C54.6097 188.813 53.4164 188.55 52.6067 187.656C51.7694 186.763 51.6126 185.57 52.2315 184.995C52.861 184.429 54.0183 184.694 54.8577 185.587C55.695 186.49 55.8582 187.675 55.2202 188.247ZM59.5396 195.435C58.7554 195.98 57.473 195.469 56.6802 194.331C55.896 193.192 55.896 191.827 56.6972 191.281C57.4921 190.734 58.7554 191.225 59.5587 192.355C60.3409 193.513 60.3409 194.878 59.5396 195.435ZM66.8448 203.76C66.1432 204.534 64.6488 204.326 63.5551 203.27C62.4359 202.238 62.1243 200.773 62.828 200C63.5381 199.224 65.0409 199.442 66.1432 200.489C67.2539 201.519 67.593 202.995 66.8448 203.76ZM76.2859 206.57C75.9764 207.573 74.5372 208.029 73.0874 207.603C71.6397 207.164 70.6922 205.989 70.9847 204.976C71.2857 203.967 72.7313 203.493 74.1917 203.948C75.6373 204.385 76.5869 205.551 76.2859 206.57ZM87.0303 207.762C87.0664 208.818 85.837 209.693 84.3151 209.712C82.7847 209.746 81.5468 208.892 81.5299 207.853C81.5299 206.787 82.7317 205.92 84.2621 205.895C85.784 205.865 87.0303 206.713 87.0303 207.762ZM97.5855 207.358C97.7678 208.388 96.7101 209.446 95.1988 209.727C93.713 209.999 92.3373 209.363 92.1487 208.341C91.9642 207.286 93.041 206.228 94.5248 205.955C96.0382 205.692 97.3927 206.311 97.5855 207.358Z" fill="#161614"/>
</g>
<defs>
<clipPath id="clip0_709_337">
<rect width="256" height="250" fill="white" transform="translate(0.983398 0.288696)"/>
</clipPath>
</defs>
</svg>
