<svg width="40" height="40" viewBox="0 0 40 40" fill="none" xmlns="http://www.w3.org/2000/svg">
<path fill-rule="evenodd" clip-rule="evenodd" d="M11.6245 5.6C11.6245 4.71634 12.3829 4 13.3185 4H22.6361C28.2498 4 32.8006 8.29807 32.8006 13.6C32.8006 18.0734 29.561 21.8321 25.1768 22.8977V27.1998C25.1768 27.1999 25.1768 27.1999 25.1768 27.2C25.1768 28.144 25.4906 29.5954 26.3822 30.7649C27.2116 31.8529 28.6089 32.7998 31.1061 32.7998C32.0417 32.7998 32.8002 33.5161 32.8002 34.3998C32.8002 35.2835 32.0417 35.9998 31.1061 35.9998C27.5046 35.9998 25.0902 34.5467 23.6326 32.6347C22.2372 30.8044 21.7886 28.6561 21.7886 27.2C21.7886 27.1999 21.7886 27.1999 21.7886 27.1998V23.2H15.0126V34.4C15.0126 35.2837 14.2542 36 13.3185 36C12.3829 36 11.6245 35.2837 11.6245 34.4V23.2V23.1999H10.7764C7.03389 23.1999 4 20.3345 4 16.7999C4 13.2653 7.03389 10.3999 10.7764 10.3999H11.6245V5.6ZM15.0126 13.7597V19.9997H21.6196C20.9459 16.865 18.3316 14.396 15.0126 13.7597ZM24.9894 19.6035C24.091 14.8868 20.0656 11.1957 15.0126 10.5131V7.2H22.6361C26.3786 7.2 29.4124 10.0654 29.4124 13.6C29.4124 16.3531 27.5718 18.7002 24.9894 19.6035ZM10.7764 13.5999H11.6234L11.6234 19.9999H10.7764C8.90513 19.9999 7.38819 18.5672 7.38819 16.7999C7.38819 15.0326 8.90513 13.5999 10.7764 13.5999Z" fill="black"/>
</svg>
