<svg width="40" height="40" viewBox="0 0 40 40" fill="none" xmlns="http://www.w3.org/2000/svg">
<path d="M8.264 31.771H13.248C13.512 31.771 13.746 31.624 13.893 31.419L27.614 8.874C27.79 8.581 27.585 8.229 27.233 8.229H22.513C22.278 8.229 22.073 8.346 21.956 8.552L8.03 31.361C7.942 31.537 8.059 31.771 8.264 31.771ZM25.445 31.419L31.924 21.011C32.129 20.688 31.895 20.278 31.514 20.278H26.823C26.647 20.278 26.471 20.366 26.383 20.513L19.728 31.156C19.552 31.42 19.757 31.772 20.08 31.772H24.859C25.093 31.771 25.327 31.654 25.445 31.419Z" fill="#3EA8FF"/>
</svg>
